<mxfile host="app.diagrams.net" modified="2022-02-03T21:04:57.875Z" agent="5.0 (iPad; CPU OS 15_3 like Mac OS X) AppleWebKit/605.1.15 (KHTML, like Gecko) CriOS/97.0.4692.84 Mobile/15E148 Safari/604.1" etag="odPAfgD9dFMplQPoqLto" version="16.5.3" type="github">
  <diagram id="7aJuCS0f06q01cc98OCK" name="Page-1">
    <mxGraphModel dx="516" dy="400" grid="0" gridSize="15" guides="0" tooltips="1" connect="1" arrows="0" fold="1" page="1" pageScale="1" pageWidth="827" pageHeight="1169" background="#FFFFFF" math="0" shadow="0">
      <root>
        <mxCell id="0" />
        <mxCell id="1" parent="0" />
        <mxCell id="b8_-anPrRSSxTGGtU9BJ-1" value="" style="ellipse;whiteSpace=wrap;html=1;aspect=fixed;rounded=0;fillColor=#FAE5C7;strokeColor=#0F8B8D;fontColor=#143642;" parent="1" vertex="1">
          <mxGeometry x="320" y="220" width="40" height="40" as="geometry" />
        </mxCell>
        <mxCell id="b8_-anPrRSSxTGGtU9BJ-2" value="" style="ellipse;whiteSpace=wrap;html=1;aspect=fixed;rounded=0;fillColor=#FAE5C7;strokeColor=#0F8B8D;fontColor=#143642;" parent="1" vertex="1">
          <mxGeometry x="320" y="160" width="40" height="40" as="geometry" />
        </mxCell>
        <mxCell id="b8_-anPrRSSxTGGtU9BJ-3" value="" style="ellipse;whiteSpace=wrap;html=1;aspect=fixed;rounded=0;fillColor=#FAE5C7;strokeColor=#0F8B8D;fontColor=#143642;" parent="1" vertex="1">
          <mxGeometry x="240" y="360" width="40" height="40" as="geometry" />
        </mxCell>
        <mxCell id="b8_-anPrRSSxTGGtU9BJ-4" value="" style="ellipse;whiteSpace=wrap;html=1;aspect=fixed;rounded=0;fillColor=#FAE5C7;strokeColor=#0F8B8D;fontColor=#143642;" parent="1" vertex="1">
          <mxGeometry x="240" y="300" width="40" height="40" as="geometry" />
        </mxCell>
        <mxCell id="b8_-anPrRSSxTGGtU9BJ-5" value="" style="ellipse;whiteSpace=wrap;html=1;aspect=fixed;rounded=0;fillColor=#FAE5C7;strokeColor=#0F8B8D;fontColor=#143642;" parent="1" vertex="1">
          <mxGeometry x="240" y="240" width="40" height="40" as="geometry" />
        </mxCell>
        <mxCell id="b8_-anPrRSSxTGGtU9BJ-6" value="" style="ellipse;whiteSpace=wrap;html=1;aspect=fixed;rounded=0;fillColor=#FAE5C7;strokeColor=#0F8B8D;fontColor=#143642;" parent="1" vertex="1">
          <mxGeometry x="240" y="180" width="40" height="40" as="geometry" />
        </mxCell>
        <mxCell id="b8_-anPrRSSxTGGtU9BJ-7" value="" style="ellipse;whiteSpace=wrap;html=1;aspect=fixed;rounded=0;fillColor=#FAE5C7;strokeColor=#0F8B8D;fontColor=#143642;" parent="1" vertex="1">
          <mxGeometry x="240" y="120" width="40" height="40" as="geometry" />
        </mxCell>
        <mxCell id="b8_-anPrRSSxTGGtU9BJ-8" value="" style="ellipse;whiteSpace=wrap;html=1;aspect=fixed;rounded=0;fillColor=#FAE5C7;strokeColor=#0F8B8D;fontColor=#143642;" parent="1" vertex="1">
          <mxGeometry x="160" y="360" width="40" height="40" as="geometry" />
        </mxCell>
        <mxCell id="b8_-anPrRSSxTGGtU9BJ-9" value="" style="ellipse;whiteSpace=wrap;html=1;aspect=fixed;rounded=0;fillColor=#FAE5C7;strokeColor=#0F8B8D;fontColor=#143642;" parent="1" vertex="1">
          <mxGeometry x="160" y="300" width="40" height="40" as="geometry" />
        </mxCell>
        <mxCell id="b8_-anPrRSSxTGGtU9BJ-10" value="" style="ellipse;whiteSpace=wrap;html=1;aspect=fixed;rounded=0;fillColor=#FAE5C7;strokeColor=#0F8B8D;fontColor=#143642;" parent="1" vertex="1">
          <mxGeometry x="160" y="240" width="40" height="40" as="geometry" />
        </mxCell>
        <mxCell id="b8_-anPrRSSxTGGtU9BJ-11" value="" style="ellipse;whiteSpace=wrap;html=1;aspect=fixed;rounded=0;fillColor=#FAE5C7;strokeColor=#0F8B8D;fontColor=#143642;" parent="1" vertex="1">
          <mxGeometry x="160" y="180" width="40" height="40" as="geometry" />
        </mxCell>
        <mxCell id="b8_-anPrRSSxTGGtU9BJ-12" value="" style="ellipse;whiteSpace=wrap;html=1;aspect=fixed;rounded=0;fillColor=#FAE5C7;strokeColor=#0F8B8D;fontColor=#143642;" parent="1" vertex="1">
          <mxGeometry x="160" y="120" width="40" height="40" as="geometry" />
        </mxCell>
        <mxCell id="b8_-anPrRSSxTGGtU9BJ-13" value="" style="ellipse;whiteSpace=wrap;html=1;aspect=fixed;rounded=0;fillColor=#0050ef;strokeColor=#001DBC;fontColor=#ffffff;" parent="1" vertex="1">
          <mxGeometry x="80" y="280" width="40" height="40" as="geometry" />
        </mxCell>
        <mxCell id="b8_-anPrRSSxTGGtU9BJ-14" value="" style="ellipse;whiteSpace=wrap;html=1;aspect=fixed;rounded=0;fillColor=#0050ef;strokeColor=#001DBC;fontColor=#ffffff;" parent="1" vertex="1">
          <mxGeometry x="80" y="220" width="40" height="40" as="geometry" />
        </mxCell>
        <mxCell id="b8_-anPrRSSxTGGtU9BJ-15" value="" style="ellipse;whiteSpace=wrap;html=1;aspect=fixed;rounded=0;fillColor=#0050ef;strokeColor=#001DBC;fontColor=#ffffff;" parent="1" vertex="1">
          <mxGeometry x="80" y="160" width="40" height="40" as="geometry" />
        </mxCell>
        <mxCell id="b8_-anPrRSSxTGGtU9BJ-16" value="" style="ellipse;whiteSpace=wrap;html=1;aspect=fixed;rounded=0;fillColor=#FAE5C7;strokeColor=#0F8B8D;fontColor=#143642;" parent="1" vertex="1">
          <mxGeometry x="320" y="280" width="40" height="40" as="geometry" />
        </mxCell>
        <mxCell id="b8_-anPrRSSxTGGtU9BJ-17" value="" style="ellipse;whiteSpace=wrap;html=1;aspect=fixed;rounded=0;fillColor=#e51400;strokeColor=#B20000;fontColor=#ffffff;" parent="1" vertex="1">
          <mxGeometry x="400" y="220" width="40" height="40" as="geometry" />
        </mxCell>
        <mxCell id="b8_-anPrRSSxTGGtU9BJ-23" value="" style="endArrow=classic;html=1;rounded=0;strokeColor=#A8201A;labelBackgroundColor=#DAD2D8;fontColor=#143642;" parent="1" edge="1">
          <mxGeometry width="50" height="50" relative="1" as="geometry">
            <mxPoint x="120" y="180" as="sourcePoint" />
            <mxPoint x="160" y="150" as="targetPoint" />
            <Array as="points">
              <mxPoint x="120" y="180" />
            </Array>
          </mxGeometry>
        </mxCell>
        <mxCell id="b8_-anPrRSSxTGGtU9BJ-24" value="" style="endArrow=classic;html=1;rounded=0;strokeColor=#A8201A;labelBackgroundColor=#DAD2D8;fontColor=#143642;" parent="1" edge="1">
          <mxGeometry width="50" height="50" relative="1" as="geometry">
            <mxPoint x="120" y="240" as="sourcePoint" />
            <mxPoint x="160" y="150" as="targetPoint" />
            <Array as="points">
              <mxPoint x="120" y="240" />
            </Array>
          </mxGeometry>
        </mxCell>
        <mxCell id="b8_-anPrRSSxTGGtU9BJ-25" value="" style="endArrow=classic;html=1;rounded=0;strokeColor=#A8201A;labelBackgroundColor=#DAD2D8;fontColor=#143642;" parent="1" edge="1">
          <mxGeometry width="50" height="50" relative="1" as="geometry">
            <mxPoint x="120" y="300" as="sourcePoint" />
            <mxPoint x="160" y="150" as="targetPoint" />
            <Array as="points">
              <mxPoint x="120" y="300" />
            </Array>
          </mxGeometry>
        </mxCell>
        <mxCell id="b8_-anPrRSSxTGGtU9BJ-26" value="" style="endArrow=classic;html=1;rounded=0;strokeColor=#A8201A;labelBackgroundColor=#DAD2D8;fontColor=#143642;" parent="1" edge="1">
          <mxGeometry width="50" height="50" relative="1" as="geometry">
            <mxPoint x="120" y="180" as="sourcePoint" />
            <mxPoint x="160" y="190" as="targetPoint" />
            <Array as="points">
              <mxPoint x="120" y="180" />
            </Array>
          </mxGeometry>
        </mxCell>
        <mxCell id="b8_-anPrRSSxTGGtU9BJ-27" value="" style="endArrow=classic;html=1;rounded=0;strokeColor=#A8201A;labelBackgroundColor=#DAD2D8;fontColor=#143642;" parent="1" edge="1">
          <mxGeometry width="50" height="50" relative="1" as="geometry">
            <mxPoint x="120" y="240" as="sourcePoint" />
            <mxPoint x="160" y="190" as="targetPoint" />
            <Array as="points">
              <mxPoint x="120" y="240" />
            </Array>
          </mxGeometry>
        </mxCell>
        <mxCell id="b8_-anPrRSSxTGGtU9BJ-28" value="" style="endArrow=classic;html=1;rounded=0;strokeColor=#A8201A;labelBackgroundColor=#DAD2D8;fontColor=#143642;" parent="1" edge="1">
          <mxGeometry width="50" height="50" relative="1" as="geometry">
            <mxPoint x="120" y="300" as="sourcePoint" />
            <mxPoint x="160" y="190" as="targetPoint" />
            <Array as="points">
              <mxPoint x="120" y="300" />
            </Array>
          </mxGeometry>
        </mxCell>
        <mxCell id="b8_-anPrRSSxTGGtU9BJ-29" value="" style="endArrow=classic;html=1;rounded=0;entryX=0;entryY=0;entryDx=0;entryDy=0;strokeColor=#A8201A;labelBackgroundColor=#DAD2D8;fontColor=#143642;" parent="1" target="b8_-anPrRSSxTGGtU9BJ-10" edge="1">
          <mxGeometry width="50" height="50" relative="1" as="geometry">
            <mxPoint x="120" y="180" as="sourcePoint" />
            <mxPoint x="420" y="220" as="targetPoint" />
          </mxGeometry>
        </mxCell>
        <mxCell id="b8_-anPrRSSxTGGtU9BJ-30" value="" style="endArrow=classic;html=1;rounded=0;entryX=0;entryY=0;entryDx=0;entryDy=0;strokeColor=#A8201A;labelBackgroundColor=#DAD2D8;fontColor=#143642;" parent="1" target="b8_-anPrRSSxTGGtU9BJ-9" edge="1">
          <mxGeometry width="50" height="50" relative="1" as="geometry">
            <mxPoint x="120" y="180" as="sourcePoint" />
            <mxPoint x="250" y="320" as="targetPoint" />
          </mxGeometry>
        </mxCell>
        <mxCell id="b8_-anPrRSSxTGGtU9BJ-31" value="" style="endArrow=classic;html=1;rounded=0;entryX=0;entryY=0;entryDx=0;entryDy=0;strokeColor=#A8201A;labelBackgroundColor=#DAD2D8;fontColor=#143642;" parent="1" target="b8_-anPrRSSxTGGtU9BJ-8" edge="1">
          <mxGeometry width="50" height="50" relative="1" as="geometry">
            <mxPoint x="120" y="180" as="sourcePoint" />
            <mxPoint x="350" y="250" as="targetPoint" />
          </mxGeometry>
        </mxCell>
        <mxCell id="b8_-anPrRSSxTGGtU9BJ-32" value="" style="endArrow=classic;html=1;rounded=0;strokeColor=#A8201A;labelBackgroundColor=#DAD2D8;fontColor=#143642;" parent="1" edge="1">
          <mxGeometry width="50" height="50" relative="1" as="geometry">
            <mxPoint x="120" y="240" as="sourcePoint" />
            <mxPoint x="170" y="240" as="targetPoint" />
          </mxGeometry>
        </mxCell>
        <mxCell id="b8_-anPrRSSxTGGtU9BJ-33" value="" style="endArrow=classic;html=1;rounded=0;strokeColor=#A8201A;labelBackgroundColor=#DAD2D8;fontColor=#143642;" parent="1" edge="1">
          <mxGeometry width="50" height="50" relative="1" as="geometry">
            <mxPoint x="120" y="240" as="sourcePoint" />
            <mxPoint x="170" y="300" as="targetPoint" />
            <Array as="points">
              <mxPoint x="120" y="240" />
            </Array>
          </mxGeometry>
        </mxCell>
        <mxCell id="b8_-anPrRSSxTGGtU9BJ-34" value="" style="endArrow=classic;html=1;rounded=0;strokeColor=#A8201A;labelBackgroundColor=#DAD2D8;fontColor=#143642;" parent="1" edge="1">
          <mxGeometry width="50" height="50" relative="1" as="geometry">
            <mxPoint x="120" y="240" as="sourcePoint" />
            <mxPoint x="170" y="360" as="targetPoint" />
            <Array as="points">
              <mxPoint x="120" y="240" />
            </Array>
          </mxGeometry>
        </mxCell>
        <mxCell id="b8_-anPrRSSxTGGtU9BJ-36" value="" style="endArrow=classic;html=1;rounded=0;strokeColor=#A8201A;labelBackgroundColor=#DAD2D8;fontColor=#143642;strokeWidth=1;" parent="1" edge="1">
          <mxGeometry width="50" height="50" relative="1" as="geometry">
            <mxPoint x="120" y="240" as="sourcePoint" />
            <mxPoint x="170" y="360" as="targetPoint" />
            <Array as="points">
              <mxPoint x="120" y="240" />
            </Array>
          </mxGeometry>
        </mxCell>
        <mxCell id="b8_-anPrRSSxTGGtU9BJ-37" value="" style="endArrow=classic;html=1;rounded=0;strokeColor=#A8201A;labelBackgroundColor=#DAD2D8;fontColor=#143642;" parent="1" edge="1">
          <mxGeometry width="50" height="50" relative="1" as="geometry">
            <mxPoint x="120" y="300" as="sourcePoint" />
            <mxPoint x="170" y="240" as="targetPoint" />
          </mxGeometry>
        </mxCell>
        <mxCell id="b8_-anPrRSSxTGGtU9BJ-38" value="" style="endArrow=classic;html=1;rounded=0;strokeColor=#A8201A;labelBackgroundColor=#DAD2D8;fontColor=#143642;" parent="1" edge="1">
          <mxGeometry width="50" height="50" relative="1" as="geometry">
            <mxPoint x="120" y="300" as="sourcePoint" />
            <mxPoint x="170" y="300" as="targetPoint" />
            <Array as="points">
              <mxPoint x="120" y="300" />
            </Array>
          </mxGeometry>
        </mxCell>
        <mxCell id="b8_-anPrRSSxTGGtU9BJ-39" value="" style="endArrow=classic;html=1;rounded=0;strokeColor=#A8201A;labelBackgroundColor=#DAD2D8;fontColor=#143642;" parent="1" edge="1">
          <mxGeometry width="50" height="50" relative="1" as="geometry">
            <mxPoint x="120" y="300" as="sourcePoint" />
            <mxPoint x="170" y="360" as="targetPoint" />
          </mxGeometry>
        </mxCell>
        <mxCell id="b8_-anPrRSSxTGGtU9BJ-40" value="" style="endArrow=classic;html=1;rounded=0;entryX=0;entryY=0.5;entryDx=0;entryDy=0;strokeColor=#A8201A;labelBackgroundColor=#DAD2D8;fontColor=#143642;" parent="1" target="b8_-anPrRSSxTGGtU9BJ-7" edge="1">
          <mxGeometry width="50" height="50" relative="1" as="geometry">
            <mxPoint x="200" y="140" as="sourcePoint" />
            <mxPoint x="340" y="230" as="targetPoint" />
            <Array as="points">
              <mxPoint x="200" y="140" />
            </Array>
          </mxGeometry>
        </mxCell>
        <mxCell id="b8_-anPrRSSxTGGtU9BJ-41" value="" style="endArrow=classic;html=1;rounded=0;entryX=0;entryY=0.5;entryDx=0;entryDy=0;strokeColor=#A8201A;labelBackgroundColor=#DAD2D8;fontColor=#143642;" parent="1" target="b8_-anPrRSSxTGGtU9BJ-3" edge="1">
          <mxGeometry width="50" height="50" relative="1" as="geometry">
            <mxPoint x="200" y="140" as="sourcePoint" />
            <mxPoint x="340" y="230" as="targetPoint" />
          </mxGeometry>
        </mxCell>
        <mxCell id="b8_-anPrRSSxTGGtU9BJ-43" value="" style="endArrow=classic;html=1;rounded=0;entryX=0;entryY=0.5;entryDx=0;entryDy=0;strokeColor=#A8201A;labelBackgroundColor=#DAD2D8;fontColor=#143642;" parent="1" target="b8_-anPrRSSxTGGtU9BJ-4" edge="1">
          <mxGeometry width="50" height="50" relative="1" as="geometry">
            <mxPoint x="200" y="140" as="sourcePoint" />
            <mxPoint x="340" y="230" as="targetPoint" />
            <Array as="points">
              <mxPoint x="200" y="140" />
            </Array>
          </mxGeometry>
        </mxCell>
        <mxCell id="b8_-anPrRSSxTGGtU9BJ-44" value="" style="endArrow=classic;html=1;rounded=0;entryX=0;entryY=0.5;entryDx=0;entryDy=0;strokeColor=#A8201A;labelBackgroundColor=#DAD2D8;fontColor=#143642;" parent="1" target="b8_-anPrRSSxTGGtU9BJ-5" edge="1">
          <mxGeometry width="50" height="50" relative="1" as="geometry">
            <mxPoint x="200" y="140" as="sourcePoint" />
            <mxPoint x="340" y="230" as="targetPoint" />
            <Array as="points">
              <mxPoint x="200" y="140" />
            </Array>
          </mxGeometry>
        </mxCell>
        <mxCell id="b8_-anPrRSSxTGGtU9BJ-45" value="" style="endArrow=classic;html=1;rounded=0;strokeColor=#A8201A;labelBackgroundColor=#DAD2D8;fontColor=#143642;" parent="1" edge="1">
          <mxGeometry width="50" height="50" relative="1" as="geometry">
            <mxPoint x="200" y="140" as="sourcePoint" />
            <mxPoint x="240" y="190" as="targetPoint" />
            <Array as="points">
              <mxPoint x="200" y="140" />
            </Array>
          </mxGeometry>
        </mxCell>
        <mxCell id="b8_-anPrRSSxTGGtU9BJ-46" value="" style="endArrow=classic;html=1;rounded=0;exitX=1;exitY=0.5;exitDx=0;exitDy=0;strokeColor=#A8201A;labelBackgroundColor=#DAD2D8;fontColor=#143642;" parent="1" source="b8_-anPrRSSxTGGtU9BJ-11" edge="1">
          <mxGeometry width="50" height="50" relative="1" as="geometry">
            <mxPoint x="290" y="280" as="sourcePoint" />
            <mxPoint x="240" y="140" as="targetPoint" />
          </mxGeometry>
        </mxCell>
        <mxCell id="b8_-anPrRSSxTGGtU9BJ-47" value="" style="endArrow=classic;html=1;rounded=0;strokeColor=#A8201A;labelBackgroundColor=#DAD2D8;fontColor=#143642;" parent="1" edge="1">
          <mxGeometry width="50" height="50" relative="1" as="geometry">
            <mxPoint x="200" y="200" as="sourcePoint" />
            <mxPoint x="240" y="190" as="targetPoint" />
          </mxGeometry>
        </mxCell>
        <mxCell id="b8_-anPrRSSxTGGtU9BJ-48" value="" style="endArrow=classic;html=1;rounded=0;strokeColor=#A8201A;labelBackgroundColor=#DAD2D8;fontColor=#143642;" parent="1" edge="1">
          <mxGeometry width="50" height="50" relative="1" as="geometry">
            <mxPoint x="200" y="200" as="sourcePoint" />
            <mxPoint x="240" y="260" as="targetPoint" />
          </mxGeometry>
        </mxCell>
        <mxCell id="b8_-anPrRSSxTGGtU9BJ-49" value="" style="endArrow=classic;html=1;rounded=0;strokeColor=#A8201A;labelBackgroundColor=#DAD2D8;fontColor=#143642;" parent="1" edge="1">
          <mxGeometry width="50" height="50" relative="1" as="geometry">
            <mxPoint x="200" y="200" as="sourcePoint" />
            <mxPoint x="240" y="320" as="targetPoint" />
          </mxGeometry>
        </mxCell>
        <mxCell id="b8_-anPrRSSxTGGtU9BJ-50" value="" style="endArrow=classic;html=1;rounded=0;strokeColor=#A8201A;labelBackgroundColor=#DAD2D8;fontColor=#143642;" parent="1" edge="1">
          <mxGeometry width="50" height="50" relative="1" as="geometry">
            <mxPoint x="200" y="200" as="sourcePoint" />
            <mxPoint x="240" y="370" as="targetPoint" />
          </mxGeometry>
        </mxCell>
        <mxCell id="b8_-anPrRSSxTGGtU9BJ-51" value="" style="endArrow=classic;html=1;rounded=0;exitX=1;exitY=0.5;exitDx=0;exitDy=0;strokeColor=#A8201A;labelBackgroundColor=#DAD2D8;fontColor=#143642;" parent="1" source="b8_-anPrRSSxTGGtU9BJ-10" edge="1">
          <mxGeometry width="50" height="50" relative="1" as="geometry">
            <mxPoint x="270" y="250" as="sourcePoint" />
            <mxPoint x="240" y="140" as="targetPoint" />
          </mxGeometry>
        </mxCell>
        <mxCell id="b8_-anPrRSSxTGGtU9BJ-52" value="" style="endArrow=classic;html=1;rounded=0;strokeColor=#A8201A;labelBackgroundColor=#DAD2D8;fontColor=#143642;" parent="1" edge="1">
          <mxGeometry width="50" height="50" relative="1" as="geometry">
            <mxPoint x="200" y="260" as="sourcePoint" />
            <mxPoint x="240" y="190" as="targetPoint" />
          </mxGeometry>
        </mxCell>
        <mxCell id="b8_-anPrRSSxTGGtU9BJ-53" value="" style="endArrow=classic;html=1;rounded=0;strokeColor=#A8201A;labelBackgroundColor=#DAD2D8;fontColor=#143642;" parent="1" edge="1">
          <mxGeometry width="50" height="50" relative="1" as="geometry">
            <mxPoint x="200" y="260" as="sourcePoint" />
            <mxPoint x="240" y="260" as="targetPoint" />
          </mxGeometry>
        </mxCell>
        <mxCell id="b8_-anPrRSSxTGGtU9BJ-54" value="" style="endArrow=classic;html=1;rounded=0;strokeColor=#A8201A;labelBackgroundColor=#DAD2D8;fontColor=#143642;" parent="1" edge="1">
          <mxGeometry width="50" height="50" relative="1" as="geometry">
            <mxPoint x="200" y="260" as="sourcePoint" />
            <mxPoint x="240" y="320" as="targetPoint" />
          </mxGeometry>
        </mxCell>
        <mxCell id="b8_-anPrRSSxTGGtU9BJ-55" value="" style="endArrow=classic;html=1;rounded=0;strokeColor=#A8201A;labelBackgroundColor=#DAD2D8;fontColor=#143642;" parent="1" edge="1">
          <mxGeometry width="50" height="50" relative="1" as="geometry">
            <mxPoint x="200" y="260" as="sourcePoint" />
            <mxPoint x="240" y="380" as="targetPoint" />
          </mxGeometry>
        </mxCell>
        <mxCell id="b8_-anPrRSSxTGGtU9BJ-56" value="" style="endArrow=classic;html=1;rounded=0;exitX=1;exitY=0.5;exitDx=0;exitDy=0;strokeColor=#A8201A;labelBackgroundColor=#DAD2D8;fontColor=#143642;" parent="1" source="b8_-anPrRSSxTGGtU9BJ-9" edge="1">
          <mxGeometry width="50" height="50" relative="1" as="geometry">
            <mxPoint x="270" y="250" as="sourcePoint" />
            <mxPoint x="240" y="140" as="targetPoint" />
          </mxGeometry>
        </mxCell>
        <mxCell id="b8_-anPrRSSxTGGtU9BJ-57" value="" style="endArrow=classic;html=1;rounded=0;strokeColor=#A8201A;labelBackgroundColor=#DAD2D8;fontColor=#143642;" parent="1" edge="1">
          <mxGeometry width="50" height="50" relative="1" as="geometry">
            <mxPoint x="200" y="320" as="sourcePoint" />
            <mxPoint x="240" y="190" as="targetPoint" />
          </mxGeometry>
        </mxCell>
        <mxCell id="b8_-anPrRSSxTGGtU9BJ-58" value="" style="endArrow=classic;html=1;rounded=0;strokeColor=#A8201A;labelBackgroundColor=#DAD2D8;fontColor=#143642;" parent="1" edge="1">
          <mxGeometry width="50" height="50" relative="1" as="geometry">
            <mxPoint x="200" y="320" as="sourcePoint" />
            <mxPoint x="240" y="250" as="targetPoint" />
          </mxGeometry>
        </mxCell>
        <mxCell id="b8_-anPrRSSxTGGtU9BJ-59" value="" style="endArrow=classic;html=1;rounded=0;strokeColor=#A8201A;labelBackgroundColor=#DAD2D8;fontColor=#143642;" parent="1" edge="1">
          <mxGeometry width="50" height="50" relative="1" as="geometry">
            <mxPoint x="200" y="320" as="sourcePoint" />
            <mxPoint x="240" y="320" as="targetPoint" />
          </mxGeometry>
        </mxCell>
        <mxCell id="b8_-anPrRSSxTGGtU9BJ-60" value="" style="endArrow=classic;html=1;rounded=0;strokeColor=#A8201A;labelBackgroundColor=#DAD2D8;fontColor=#143642;" parent="1" edge="1">
          <mxGeometry width="50" height="50" relative="1" as="geometry">
            <mxPoint x="200" y="320" as="sourcePoint" />
            <mxPoint x="240" y="380" as="targetPoint" />
          </mxGeometry>
        </mxCell>
        <mxCell id="b8_-anPrRSSxTGGtU9BJ-61" value="" style="endArrow=classic;html=1;rounded=0;exitX=1;exitY=0.5;exitDx=0;exitDy=0;strokeColor=#A8201A;labelBackgroundColor=#DAD2D8;fontColor=#143642;" parent="1" source="b8_-anPrRSSxTGGtU9BJ-8" edge="1">
          <mxGeometry width="50" height="50" relative="1" as="geometry">
            <mxPoint x="280" y="310" as="sourcePoint" />
            <mxPoint x="240" y="140" as="targetPoint" />
          </mxGeometry>
        </mxCell>
        <mxCell id="b8_-anPrRSSxTGGtU9BJ-62" value="" style="endArrow=classic;html=1;rounded=0;strokeColor=#A8201A;labelBackgroundColor=#DAD2D8;fontColor=#143642;" parent="1" edge="1">
          <mxGeometry width="50" height="50" relative="1" as="geometry">
            <mxPoint x="200" y="380" as="sourcePoint" />
            <mxPoint x="240" y="190" as="targetPoint" />
          </mxGeometry>
        </mxCell>
        <mxCell id="b8_-anPrRSSxTGGtU9BJ-63" value="" style="endArrow=classic;html=1;rounded=0;strokeColor=#A8201A;labelBackgroundColor=#DAD2D8;fontColor=#143642;" parent="1" edge="1">
          <mxGeometry width="50" height="50" relative="1" as="geometry">
            <mxPoint x="200" y="380" as="sourcePoint" />
            <mxPoint x="240" y="250" as="targetPoint" />
          </mxGeometry>
        </mxCell>
        <mxCell id="b8_-anPrRSSxTGGtU9BJ-64" value="" style="endArrow=classic;html=1;rounded=0;strokeColor=#A8201A;labelBackgroundColor=#DAD2D8;fontColor=#143642;" parent="1" edge="1">
          <mxGeometry width="50" height="50" relative="1" as="geometry">
            <mxPoint x="200" y="380" as="sourcePoint" />
            <mxPoint x="240" y="310" as="targetPoint" />
          </mxGeometry>
        </mxCell>
        <mxCell id="b8_-anPrRSSxTGGtU9BJ-65" value="" style="endArrow=classic;html=1;rounded=0;strokeColor=#A8201A;labelBackgroundColor=#DAD2D8;fontColor=#143642;" parent="1" edge="1">
          <mxGeometry width="50" height="50" relative="1" as="geometry">
            <mxPoint x="200" y="380" as="sourcePoint" />
            <mxPoint x="240" y="380" as="targetPoint" />
          </mxGeometry>
        </mxCell>
        <mxCell id="b8_-anPrRSSxTGGtU9BJ-66" value="" style="endArrow=classic;html=1;rounded=0;exitX=1;exitY=0.5;exitDx=0;exitDy=0;entryX=0;entryY=0;entryDx=0;entryDy=0;strokeColor=#A8201A;labelBackgroundColor=#DAD2D8;fontColor=#143642;" parent="1" source="b8_-anPrRSSxTGGtU9BJ-7" target="b8_-anPrRSSxTGGtU9BJ-2" edge="1">
          <mxGeometry width="50" height="50" relative="1" as="geometry">
            <mxPoint x="280" y="310" as="sourcePoint" />
            <mxPoint x="330" y="260" as="targetPoint" />
          </mxGeometry>
        </mxCell>
        <mxCell id="b8_-anPrRSSxTGGtU9BJ-67" value="" style="endArrow=classic;html=1;rounded=0;strokeColor=#A8201A;labelBackgroundColor=#DAD2D8;fontColor=#143642;" parent="1" edge="1">
          <mxGeometry width="50" height="50" relative="1" as="geometry">
            <mxPoint x="280" y="140" as="sourcePoint" />
            <mxPoint x="320" y="240" as="targetPoint" />
          </mxGeometry>
        </mxCell>
        <mxCell id="b8_-anPrRSSxTGGtU9BJ-68" value="" style="endArrow=classic;html=1;rounded=0;entryX=0;entryY=0.5;entryDx=0;entryDy=0;strokeColor=#A8201A;labelBackgroundColor=#DAD2D8;fontColor=#143642;" parent="1" target="b8_-anPrRSSxTGGtU9BJ-16" edge="1">
          <mxGeometry width="50" height="50" relative="1" as="geometry">
            <mxPoint x="280" y="140" as="sourcePoint" />
            <mxPoint x="330" y="260" as="targetPoint" />
          </mxGeometry>
        </mxCell>
        <mxCell id="b8_-anPrRSSxTGGtU9BJ-69" value="" style="endArrow=classic;html=1;rounded=0;exitX=1;exitY=0.5;exitDx=0;exitDy=0;strokeColor=#A8201A;labelBackgroundColor=#DAD2D8;fontColor=#143642;" parent="1" source="b8_-anPrRSSxTGGtU9BJ-6" edge="1">
          <mxGeometry width="50" height="50" relative="1" as="geometry">
            <mxPoint x="280" y="310" as="sourcePoint" />
            <mxPoint x="330" y="160" as="targetPoint" />
          </mxGeometry>
        </mxCell>
        <mxCell id="b8_-anPrRSSxTGGtU9BJ-70" value="" style="endArrow=classic;html=1;rounded=0;strokeColor=#A8201A;labelBackgroundColor=#DAD2D8;fontColor=#143642;" parent="1" edge="1">
          <mxGeometry width="50" height="50" relative="1" as="geometry">
            <mxPoint x="280" y="200" as="sourcePoint" />
            <mxPoint x="320" y="240" as="targetPoint" />
          </mxGeometry>
        </mxCell>
        <mxCell id="b8_-anPrRSSxTGGtU9BJ-71" value="" style="endArrow=classic;html=1;rounded=0;strokeColor=#A8201A;labelBackgroundColor=#DAD2D8;fontColor=#143642;" parent="1" edge="1">
          <mxGeometry width="50" height="50" relative="1" as="geometry">
            <mxPoint x="280" y="200" as="sourcePoint" />
            <mxPoint x="320" y="300" as="targetPoint" />
          </mxGeometry>
        </mxCell>
        <mxCell id="b8_-anPrRSSxTGGtU9BJ-72" value="" style="endArrow=classic;html=1;rounded=0;exitX=1;exitY=0.5;exitDx=0;exitDy=0;strokeColor=#A8201A;labelBackgroundColor=#DAD2D8;fontColor=#143642;" parent="1" source="b8_-anPrRSSxTGGtU9BJ-5" edge="1">
          <mxGeometry width="50" height="50" relative="1" as="geometry">
            <mxPoint x="280" y="310" as="sourcePoint" />
            <mxPoint x="320" y="160" as="targetPoint" />
          </mxGeometry>
        </mxCell>
        <mxCell id="b8_-anPrRSSxTGGtU9BJ-73" value="" style="endArrow=classic;html=1;rounded=0;strokeColor=#A8201A;labelBackgroundColor=#DAD2D8;fontColor=#143642;" parent="1" edge="1">
          <mxGeometry width="50" height="50" relative="1" as="geometry">
            <mxPoint x="280" y="260" as="sourcePoint" />
            <mxPoint x="320" y="230" as="targetPoint" />
          </mxGeometry>
        </mxCell>
        <mxCell id="b8_-anPrRSSxTGGtU9BJ-74" value="" style="endArrow=classic;html=1;rounded=0;strokeColor=#A8201A;labelBackgroundColor=#DAD2D8;fontColor=#143642;" parent="1" edge="1">
          <mxGeometry width="50" height="50" relative="1" as="geometry">
            <mxPoint x="280" y="260" as="sourcePoint" />
            <mxPoint x="320" y="300" as="targetPoint" />
          </mxGeometry>
        </mxCell>
        <mxCell id="b8_-anPrRSSxTGGtU9BJ-75" value="" style="endArrow=classic;html=1;rounded=0;exitX=1;exitY=0.5;exitDx=0;exitDy=0;strokeColor=#A8201A;labelBackgroundColor=#DAD2D8;fontColor=#143642;" parent="1" source="b8_-anPrRSSxTGGtU9BJ-4" edge="1">
          <mxGeometry width="50" height="50" relative="1" as="geometry">
            <mxPoint x="280" y="310" as="sourcePoint" />
            <mxPoint x="320" y="160" as="targetPoint" />
          </mxGeometry>
        </mxCell>
        <mxCell id="b8_-anPrRSSxTGGtU9BJ-76" value="" style="endArrow=classic;html=1;rounded=0;strokeColor=#A8201A;labelBackgroundColor=#DAD2D8;fontColor=#143642;" parent="1" edge="1">
          <mxGeometry width="50" height="50" relative="1" as="geometry">
            <mxPoint x="280" y="320" as="sourcePoint" />
            <mxPoint x="320" y="230" as="targetPoint" />
          </mxGeometry>
        </mxCell>
        <mxCell id="b8_-anPrRSSxTGGtU9BJ-77" value="" style="endArrow=classic;html=1;rounded=0;strokeColor=#A8201A;labelBackgroundColor=#DAD2D8;fontColor=#143642;" parent="1" edge="1">
          <mxGeometry width="50" height="50" relative="1" as="geometry">
            <mxPoint x="280" y="320" as="sourcePoint" />
            <mxPoint x="320" y="290" as="targetPoint" />
          </mxGeometry>
        </mxCell>
        <mxCell id="b8_-anPrRSSxTGGtU9BJ-78" value="" style="endArrow=classic;html=1;rounded=0;exitX=1;exitY=0.5;exitDx=0;exitDy=0;strokeColor=#A8201A;labelBackgroundColor=#DAD2D8;fontColor=#143642;" parent="1" source="b8_-anPrRSSxTGGtU9BJ-3" edge="1">
          <mxGeometry width="50" height="50" relative="1" as="geometry">
            <mxPoint x="280" y="310" as="sourcePoint" />
            <mxPoint x="320" y="160" as="targetPoint" />
          </mxGeometry>
        </mxCell>
        <mxCell id="b8_-anPrRSSxTGGtU9BJ-79" value="" style="endArrow=classic;html=1;rounded=0;strokeColor=#A8201A;labelBackgroundColor=#DAD2D8;fontColor=#143642;" parent="1" edge="1">
          <mxGeometry width="50" height="50" relative="1" as="geometry">
            <mxPoint x="280" y="380" as="sourcePoint" />
            <mxPoint x="320" y="230" as="targetPoint" />
          </mxGeometry>
        </mxCell>
        <mxCell id="b8_-anPrRSSxTGGtU9BJ-80" value="" style="endArrow=classic;html=1;rounded=0;strokeColor=#A8201A;labelBackgroundColor=#DAD2D8;fontColor=#143642;" parent="1" edge="1">
          <mxGeometry width="50" height="50" relative="1" as="geometry">
            <mxPoint x="280" y="380" as="sourcePoint" />
            <mxPoint x="320" y="290" as="targetPoint" />
          </mxGeometry>
        </mxCell>
        <mxCell id="b8_-anPrRSSxTGGtU9BJ-81" value="" style="endArrow=classic;html=1;rounded=0;exitX=1;exitY=0.5;exitDx=0;exitDy=0;strokeColor=#A8201A;labelBackgroundColor=#DAD2D8;fontColor=#143642;" parent="1" source="b8_-anPrRSSxTGGtU9BJ-2" edge="1">
          <mxGeometry width="50" height="50" relative="1" as="geometry">
            <mxPoint x="280" y="310" as="sourcePoint" />
            <mxPoint x="400" y="240" as="targetPoint" />
            <Array as="points" />
          </mxGeometry>
        </mxCell>
        <mxCell id="b8_-anPrRSSxTGGtU9BJ-82" value="" style="endArrow=classic;html=1;rounded=0;exitX=1;exitY=0.5;exitDx=0;exitDy=0;entryX=0;entryY=0.5;entryDx=0;entryDy=0;strokeColor=#A8201A;labelBackgroundColor=#DAD2D8;fontColor=#143642;" parent="1" source="b8_-anPrRSSxTGGtU9BJ-1" target="b8_-anPrRSSxTGGtU9BJ-17" edge="1">
          <mxGeometry width="50" height="50" relative="1" as="geometry">
            <mxPoint x="280" y="310" as="sourcePoint" />
            <mxPoint x="330" y="260" as="targetPoint" />
          </mxGeometry>
        </mxCell>
        <mxCell id="b8_-anPrRSSxTGGtU9BJ-83" value="" style="endArrow=classic;html=1;rounded=0;exitX=1;exitY=0.5;exitDx=0;exitDy=0;strokeColor=#A8201A;labelBackgroundColor=#DAD2D8;fontColor=#143642;" parent="1" source="b8_-anPrRSSxTGGtU9BJ-16" edge="1">
          <mxGeometry width="50" height="50" relative="1" as="geometry">
            <mxPoint x="280" y="310" as="sourcePoint" />
            <mxPoint x="400" y="240" as="targetPoint" />
          </mxGeometry>
        </mxCell>
        <mxCell id="km2Q_ptxmpBtgiPjxREF-2" value="Input Layer" style="text;strokeColor=none;fillColor=none;html=1;fontSize=8;fontStyle=1;verticalAlign=middle;align=center;" vertex="1" parent="1">
          <mxGeometry x="72" y="319" width="54" height="21" as="geometry" />
        </mxCell>
        <mxCell id="km2Q_ptxmpBtgiPjxREF-3" value="Hidden Layer 1" style="text;strokeColor=none;fillColor=none;html=1;fontSize=8;fontStyle=1;verticalAlign=middle;align=center;" vertex="1" parent="1">
          <mxGeometry x="128" y="389" width="100" height="40" as="geometry" />
        </mxCell>
        <mxCell id="km2Q_ptxmpBtgiPjxREF-4" value="Hidden Layer 2" style="text;strokeColor=none;fillColor=none;html=1;fontSize=8;fontStyle=1;verticalAlign=middle;align=center;" vertex="1" parent="1">
          <mxGeometry x="215" y="397" width="100" height="40" as="geometry" />
        </mxCell>
        <mxCell id="km2Q_ptxmpBtgiPjxREF-5" value="Hidden Layer 3" style="text;strokeColor=none;fillColor=none;html=1;fontSize=8;fontStyle=1;verticalAlign=middle;align=center;" vertex="1" parent="1">
          <mxGeometry x="293" y="319" width="100" height="27" as="geometry" />
        </mxCell>
        <mxCell id="km2Q_ptxmpBtgiPjxREF-6" value="Output Layer" style="text;strokeColor=none;fillColor=none;html=1;fontSize=8;fontStyle=1;verticalAlign=middle;align=center;" vertex="1" parent="1">
          <mxGeometry x="370" y="249" width="100" height="40" as="geometry" />
        </mxCell>
      </root>
    </mxGraphModel>
  </diagram>
</mxfile>
